<svg version="1.1" id="Layer_1" xmlns="http://www.w3.org/2000/svg" xmlns:xlink="http://www.w3.org/1999/xlink" x="0px" y="0px"
	 width="100%" viewBox="0 0 512 460" enable-background="new 0 0 512 460" xml:space="preserve">
<path fill="#000000" opacity="1.000000" stroke="none" 
	d="
M255.000000,461.000000 
	C170.000015,461.000000 85.500038,461.000000 1.000045,461.000000 
	C1.000030,307.666718 1.000030,154.333450 1.000015,1.000128 
	C171.666565,1.000085 342.333130,1.000085 512.999756,1.000043 
	C512.999878,154.333206 512.999878,307.666412 512.999939,460.999817 
	C427.166656,461.000000 341.333344,461.000000 255.000000,461.000000 
M38.973263,242.977066 
	C38.973263,242.977066 38.935268,242.895309 38.322128,243.141098 
	C37.844845,244.073273 37.367561,245.005432 36.972237,245.976349 
	C36.972237,245.976349 36.934200,245.894043 36.276009,246.179535 
	C32.903172,254.119705 29.530336,262.059875 26.000948,270.726379 
	C25.960699,271.467010 25.920452,272.207672 25.169289,273.332550 
	C25.166210,275.221313 25.163132,277.110107 25.002117,279.895996 
	C25.054737,282.930573 25.107357,285.965149 25.013391,289.868958 
	C25.304979,292.598053 25.596567,295.327118 25.981396,298.791870 
	C26.040462,299.527863 26.099529,300.263824 26.011606,301.751740 
	C26.636936,303.518585 27.262266,305.285431 27.984426,307.704193 
	C28.043390,308.137115 28.102356,308.570068 28.015902,309.692535 
	C28.656359,310.829102 29.296818,311.965668 29.975527,313.021362 
	C29.975527,313.021362 29.894810,313.059937 29.992310,313.808563 
	C30.980881,315.912231 31.969452,318.015930 32.996731,320.863770 
	C36.267281,325.212921 36.241394,330.373199 37.171070,335.467926 
	C40.915207,355.986267 52.910873,370.781952 70.809273,380.972015 
	C87.650902,390.560394 106.003365,392.879211 125.930000,391.986664 
	C172.360886,391.989655 218.791794,392.003693 265.222595,391.950256 
	C266.877563,391.948334 268.531708,391.278412 270.681976,390.970642 
	C271.014008,390.958893 271.346039,390.947937 272.453491,391.056366 
	C272.963654,390.984039 273.473816,390.911713 274.457031,390.910126 
	C274.457031,390.910126 274.934052,390.874603 275.864410,391.009094 
	C280.264587,390.972076 284.664795,390.935059 289.775970,390.968262 
	C290.488464,390.935394 291.200989,390.902527 292.447632,390.991180 
	C292.630188,390.994781 292.812744,390.998383 293.301636,391.801086 
	C296.200867,391.817047 299.100067,391.833008 302.660217,392.006744 
	C303.107056,391.954620 303.553925,391.902496 304.928680,391.993103 
	C308.366913,391.997620 311.811462,392.134369 315.241638,391.970276 
	C318.829376,391.798676 322.403290,391.337799 326.781555,391.033478 
	C329.519958,391.023071 332.258331,391.012665 335.328033,391.822113 
	C348.569305,391.883545 361.810577,391.958740 375.051880,391.964050 
	C375.682678,391.964294 376.313782,391.346375 377.503235,391.016785 
	C377.689240,391.024445 377.875214,391.032135 378.221466,391.732483 
	C379.149872,391.771088 380.078278,391.809662 381.664581,392.004791 
	C382.109131,391.951721 382.553650,391.898682 383.926758,391.987488 
	C395.299561,391.992737 406.672516,392.027405 418.044952,391.963837 
	C419.382996,391.956329 420.717987,391.408752 422.842072,391.015106 
	C423.894989,390.956940 424.947906,390.898743 426.820435,390.987823 
	C432.920990,389.006226 439.021515,387.024628 445.853699,385.002625 
	C454.751312,380.691620 461.888794,374.515656 467.476379,366.230438 
	C473.031647,357.993195 475.032532,348.733978 477.093933,339.337402 
	C477.937042,335.494141 479.697327,331.852142 481.731567,327.787750 
	C482.432678,325.192596 483.133759,322.597412 483.995544,319.575623 
	C483.995544,319.575623 484.040009,319.121918 484.553162,318.947662 
	C484.649048,318.638275 484.744904,318.328888 484.997894,317.236908 
	C485.037689,316.174744 485.077484,315.112610 485.855652,313.623352 
	C485.905060,311.297272 485.648224,308.916046 486.055603,306.654449 
	C488.073456,295.453064 485.601532,285.011810 480.996979,274.418793 
	C480.996979,274.418793 480.838074,273.988037 480.933105,273.457397 
	C480.640686,273.268433 480.348236,273.079468 480.025238,272.969879 
	C480.025238,272.969879 480.104553,272.939270 480.003967,272.200684 
	C476.689850,267.100555 473.375732,262.000427 470.018585,256.981384 
	C470.018585,256.981384 470.099487,256.938019 469.854828,256.321533 
	C468.526794,254.742950 467.198792,253.164368 465.732025,251.248245 
	C465.732025,251.248245 465.390564,251.119476 465.052368,250.604233 
	C464.017456,249.541306 463.097290,248.326569 461.927490,247.442062 
	C457.190460,243.860413 455.340515,239.328629 455.867645,233.304276 
	C456.231903,229.141647 455.810944,224.765060 454.916260,220.664001 
	C451.920044,206.930115 445.536346,194.877655 435.747131,184.250427 
	C435.747131,184.250427 435.392853,184.116013 435.163361,183.743790 
	C434.735291,183.360886 434.307220,182.977982 433.741394,182.247391 
	C433.741394,182.247391 433.391357,182.115784 433.042847,181.586472 
	C429.382202,179.022766 425.721527,176.459045 422.027405,173.975113 
	C422.027405,173.975113 422.107330,173.941971 421.939148,173.433319 
	C421.632477,173.342728 421.325775,173.252136 420.583466,173.002838 
	C420.583466,173.002838 420.122009,172.957642 419.835083,172.295502 
	C414.223419,169.915939 408.611725,167.536377 402.359375,165.000320 
	C401.922516,164.959320 401.485657,164.918335 400.679565,164.178207 
	C392.785980,163.506088 384.892426,162.833984 376.077087,162.009216 
	C369.741333,161.266281 363.405609,160.523346 357.491364,159.211700 
	C357.801514,158.822800 358.242523,158.481171 358.402588,158.038055 
	C361.994324,148.094803 363.077942,137.865692 360.707550,127.561348 
	C359.549225,122.526062 358.551178,116.353111 355.162140,113.142166 
	C345.725983,104.201912 334.128845,101.109856 321.331512,105.924095 
	C318.641144,106.936203 316.082764,109.082504 313.401428,109.192551 
	C304.365723,109.563385 298.674591,112.584610 296.268585,122.386215 
	C294.878479,128.049362 295.626312,132.331009 298.150269,137.677643 
	C299.080994,137.785812 300.011688,137.893997 300.995209,138.915039 
	C300.995209,141.864182 300.995209,144.813339 300.995209,147.368896 
	C291.445007,146.270660 282.232697,145.211273 272.373810,143.998764 
	C271.933411,143.959000 271.493011,143.919235 270.614166,143.136322 
	C266.209106,142.757050 261.800049,142.018372 257.399750,142.067215 
	C245.171524,142.202911 232.942215,142.554855 220.724030,143.073624 
	C217.443222,143.212921 214.200714,144.253952 210.205673,144.979218 
	C209.469940,145.039124 208.734192,145.099030 207.186462,145.012604 
	C204.388947,145.674332 201.581253,146.295990 198.795685,147.004715 
	C186.432907,150.150162 174.048584,153.242920 162.292221,159.976974 
	C161.862320,160.035324 161.432434,160.093658 160.282776,160.193192 
	C156.487259,162.440811 152.691727,164.688416 148.977722,166.974396 
	C148.977722,166.974396 148.938873,166.893097 148.244858,166.995102 
	C147.118423,167.648590 145.991989,168.302094 144.400818,169.061417 
	C144.099258,169.243134 143.950668,169.510010 143.259644,169.987335 
	C141.795105,170.976669 140.330566,171.966003 138.401215,173.064163 
	C138.099915,173.246872 137.951324,173.514404 137.239044,173.989883 
	C132.782898,177.645493 128.326752,181.301086 123.403877,185.064850 
	C123.101173,185.248001 122.952103,185.516449 122.261620,185.990860 
	C119.797661,188.312485 117.333694,190.634125 114.403336,193.065887 
	C114.100800,193.249512 113.952049,193.518265 113.446465,194.051712 
	C113.350761,194.360764 113.255066,194.669800 112.999832,195.413895 
	C112.999832,195.413895 112.956909,195.875275 112.316078,196.143906 
	C110.842224,198.409103 109.368378,200.674286 107.975426,202.978561 
	C107.975426,202.978561 107.936958,202.897369 107.289131,203.171371 
	C106.251045,204.592896 105.414749,206.240662 104.130486,207.386185 
	C101.852913,209.417679 99.542618,212.099182 96.813683,212.782791 
	C92.311172,213.910690 87.279686,212.972870 82.808121,214.167267 
	C76.672119,215.806274 70.850693,218.622971 64.977005,220.974228 
	C64.977005,220.974228 64.936607,220.892242 64.202446,220.994400 
	C59.758511,223.981812 55.314575,226.969223 50.265450,230.176697 
	C48.829082,231.740982 47.392715,233.305267 45.348862,235.118301 
	C43.767754,236.783127 42.186642,238.447937 40.243553,240.250198 
	C40.243553,240.250198 40.109398,240.613403 39.633266,240.923111 
	C39.386086,241.594940 39.138901,242.266785 38.973263,242.977066 
z"/>
<path fill="#FEF5E6" opacity="1.000000" stroke="none" 
	d="
M25.159977,288.999725 
	C25.107357,285.965149 25.054737,282.930573 25.432514,279.354858 
	C25.868675,276.858612 25.874439,274.903442 25.880203,272.948303 
	C25.920452,272.207672 25.960699,271.467010 26.422836,270.287598 
	C28.177095,267.131683 29.661501,264.477051 30.809013,261.683960 
	C32.953957,256.463074 34.903416,251.161850 36.934204,245.894043 
	C36.934200,245.894043 36.972237,245.976349 37.288757,245.917572 
	C38.048611,244.870972 38.491940,243.883133 38.935265,242.895309 
	C38.935268,242.895309 38.973263,242.977066 39.287758,242.907547 
	C39.771305,242.096481 39.940350,241.354950 40.109398,240.613403 
	C40.109398,240.613403 40.243553,240.250198 40.746590,240.382019 
	C44.695786,240.197830 46.021065,238.113251 45.956352,234.869553 
	C47.392715,233.305267 48.829082,231.740982 50.967484,230.078690 
	C57.766666,229.208694 64.213799,224.792175 64.936607,220.892242 
	C64.936607,220.892242 64.977005,220.974228 65.354782,220.973846 
	C67.500305,220.644165 69.272453,220.336685 71.035072,219.981857 
	C79.244308,218.329193 87.391586,216.186096 95.677589,215.156372 
	C102.076508,214.361176 107.580124,209.629150 107.936958,202.897369 
	C107.936958,202.897369 107.975426,202.978561 108.295715,202.939117 
	C110.062981,200.558212 111.509949,198.216751 112.956909,195.875275 
	C112.956909,195.875275 112.999832,195.413895 113.269470,195.058502 
	C113.753265,194.463745 113.892593,194.186752 113.957085,193.872116 
	C113.952049,193.518265 114.100800,193.249512 115.028816,193.023560 
	C120.560143,193.149124 121.632736,189.380615 122.956665,185.870209 
	C122.952103,185.516449 123.101173,185.248001 124.011841,185.018951 
	C129.065018,181.270935 133.510223,177.568848 137.955444,173.866760 
	C137.951324,173.514404 138.099915,173.246872 139.052399,173.023422 
	C141.927200,173.041153 144.312912,173.320465 143.955032,169.862030 
	C143.950668,169.510010 144.099258,169.243134 145.022232,169.020279 
	C146.742065,168.283798 147.840469,167.588455 148.938873,166.893097 
	C148.938873,166.893097 148.977722,166.974396 149.336487,166.973145 
	C154.220123,165.951645 159.107300,165.532135 161.002533,160.152008 
	C161.432434,160.093658 161.862320,160.035324 162.843811,160.210175 
	C165.035873,160.096542 166.719009,159.884323 168.309753,159.380432 
	C177.015839,156.622620 185.749130,153.936264 194.370453,150.930984 
	C199.018951,149.310562 203.462463,147.102097 207.998459,145.158936 
	C208.734192,145.099030 209.469940,145.039124 210.829773,145.224823 
	C215.374542,145.314346 219.294724,145.039688 223.215973,145.023636 
	C236.950577,144.967422 250.685913,145.049850 264.420013,144.949341 
	C266.633392,144.933151 268.841858,144.252792 271.052612,143.879456 
	C271.493011,143.919235 271.933411,143.959000 272.966919,144.317810 
	C279.740601,146.095871 285.906982,147.618896 292.107117,148.989410 
	C295.706482,149.785019 299.359924,150.335663 303.046204,151.350296 
	C306.795288,160.204575 312.252014,167.083664 321.550964,169.572983 
	C325.801971,170.710968 328.140045,172.905014 328.999512,177.423950 
	C327.994965,182.549515 326.992401,187.265076 325.548706,191.994537 
	C320.743073,191.676300 316.378571,191.344147 311.721252,190.878738 
	C310.621368,190.497650 309.814331,190.249832 308.650513,189.948318 
	C307.167755,189.233322 306.098907,188.437119 304.906555,187.932922 
	C297.792328,184.924515 290.876099,180.980347 283.452271,179.304016 
	C276.133850,177.651489 268.294434,178.228546 260.678375,178.000946 
	C256.058807,177.862885 251.644318,181.133545 250.355850,185.668503 
	C249.592957,188.353699 249.357162,191.188629 248.548981,194.040802 
	C243.922470,197.098282 239.631332,200.071198 235.138947,203.183517 
	C237.445236,204.114304 239.360001,204.887085 240.420303,205.315018 
	C244.691452,202.597214 248.357239,200.264618 252.414551,197.944702 
	C255.330978,198.604813 257.975311,200.085663 260.358490,199.744095 
	C267.641235,198.700333 274.794098,196.772614 282.064331,195.604706 
	C284.021973,195.290237 286.697571,195.849274 288.216064,197.052078 
	C293.344818,201.114578 298.101685,205.646591 303.046265,210.350281 
	C306.596130,216.278641 312.338501,216.538666 318.169434,217.364136 
	C320.940369,232.366699 316.711548,245.972656 312.889435,259.672333 
	C308.466888,258.667816 304.775391,257.829346 301.023682,256.647156 
	C300.406281,255.496567 300.007263,254.485046 299.268066,253.913544 
	C287.953217,245.165649 279.692688,233.821808 271.807220,221.686066 
	C269.295349,214.980911 266.503448,209.077530 258.508148,208.340073 
	C257.754852,208.270599 256.984863,207.668457 256.348938,207.156662 
	C252.309296,203.905731 248.277817,204.470581 243.820145,206.500244 
	C240.892517,207.833252 237.531769,208.692291 234.322342,208.840485 
	C224.265778,209.304855 222.383240,210.550888 219.613495,220.116196 
	C219.060318,222.026581 218.489975,223.940521 218.096451,225.886978 
	C217.042328,231.101059 218.541626,232.436600 223.896500,231.551270 
	C221.921097,238.302750 221.241318,244.705475 223.267792,251.560974 
	C224.176620,253.865631 224.728653,256.282288 226.237823,257.615295 
	C228.405029,259.529510 228.998108,261.154114 226.508011,262.652527 
	C221.554871,265.633057 222.463272,270.227356 222.998764,274.556885 
	C223.800797,281.041504 229.523865,283.199707 234.678909,279.185699 
	C236.472504,277.789124 238.234009,276.351318 240.041656,275.270691 
	C239.810394,276.647858 239.547653,277.686676 239.220276,279.140137 
	C238.100143,285.098755 236.723099,290.318268 231.769974,294.058380 
	C227.955872,296.938446 224.184860,300.176483 221.324814,303.958679 
	C214.651276,312.783997 208.538025,322.033020 201.860809,330.954559 
	C198.690979,328.897003 194.914566,327.610687 193.199066,324.980316 
	C187.647263,316.467712 179.326294,316.668365 170.497559,316.522766 
	C168.097794,316.057495 166.084656,315.683533 163.977661,315.014709 
	C162.158676,313.943878 160.433533,313.167877 158.723755,312.375610 
	C158.739120,312.359344 158.732605,312.316406 158.786087,312.013824 
	C158.543228,311.282135 158.246902,310.853027 157.950562,310.423920 
	C157.624039,310.853363 157.297516,311.282837 156.641449,311.692810 
	C153.832809,310.210236 151.353729,308.747192 148.551239,307.093262 
	C146.467361,311.589752 144.741165,315.314453 142.742737,319.253998 
	C140.810272,322.962677 139.150024,326.456543 137.374268,330.260376 
	C138.151978,336.689667 140.486649,341.842804 146.278763,344.961761 
	C148.101273,345.943146 149.601990,347.522125 151.098373,349.147949 
	C147.288910,354.410004 143.248672,359.118408 140.059601,364.346069 
	C134.801849,372.964813 130.094345,381.919250 125.105804,391.008484 
	C125.038864,391.471069 125.021042,391.657318 125.003227,391.843536 
	C106.003365,392.879211 87.650902,390.560394 70.809273,380.972015 
	C52.910873,370.781952 40.915207,355.986267 37.171070,335.467926 
	C36.241394,330.373199 36.267281,325.212921 32.989326,320.081329 
	C31.952887,317.219238 30.923847,315.139587 29.894810,313.059937 
	C29.894810,313.059937 29.975527,313.021362 29.973124,312.690002 
	C29.367586,311.240082 28.764452,310.121552 28.161320,309.002991 
	C28.102356,308.570068 28.043390,308.137115 28.192818,307.169189 
	C27.653671,304.756073 26.906134,302.877960 26.158596,300.999817 
	C26.099529,300.263824 26.040462,299.527863 26.231537,298.151611 
	C26.041109,294.674164 25.600542,291.836945 25.159977,288.999725 
z"/>
<path fill="#FEF5E6" opacity="1.000000" stroke="none" 
	d="
M484.040009,319.121918 
	C484.040009,319.121918 483.995544,319.575623 483.543457,319.854431 
	C482.407684,322.795013 481.724030,325.456787 481.040344,328.118561 
	C479.697327,331.852142 477.937042,335.494141 477.093933,339.337402 
	C475.032532,348.733978 473.031647,357.993195 467.476379,366.230438 
	C461.888794,374.515656 454.751312,380.691620 445.075867,385.011047 
	C438.697601,386.377441 433.086792,387.695343 427.511810,389.150513 
	C426.902588,389.309509 426.499512,390.258179 426.000854,390.840576 
	C424.947906,390.898743 423.894989,390.956940 422.155914,390.756561 
	C409.311646,390.347748 397.153595,390.168915 384.995117,390.124969 
	C384.331543,390.122559 383.663910,391.246124 382.998199,391.845612 
	C382.553650,391.898682 382.109131,391.951721 381.318390,391.667603 
	C380.732239,390.888489 380.492279,390.446564 380.202911,389.537140 
	C380.124329,381.430634 380.095184,373.791626 380.344879,365.954285 
	C380.611938,363.499847 380.600128,361.243744 380.560913,358.959045 
	C380.533478,358.930420 380.591064,358.875946 380.861145,358.691589 
	C381.298157,357.669708 381.465118,356.832245 381.787689,355.643494 
	C381.975739,354.532166 382.008179,353.772095 382.300354,352.717712 
	C383.357239,348.373810 384.168274,344.326935 384.948517,340.274109 
	C386.669128,331.336914 385.493439,322.846649 381.196899,314.765869 
	C378.037994,308.824738 375.065552,302.784454 371.954834,296.418945 
	C372.555939,288.119080 370.147949,280.244934 374.230255,272.175323 
	C377.627838,265.459259 377.263062,256.896423 380.384766,249.972076 
	C386.276428,236.903595 387.232269,223.553452 384.887848,209.888229 
	C383.651794,202.683334 380.937439,195.715637 378.641113,188.722763 
	C378.175781,187.305664 376.763062,186.022491 375.489166,185.080505 
	C371.270020,181.960693 366.775604,179.196487 362.710144,175.897339 
	C361.701660,175.078949 361.614655,172.749130 361.655792,171.128052 
	C361.690826,169.745789 362.518097,168.383606 363.359375,167.004990 
	C365.482147,166.333191 367.240479,165.668945 369.188324,165.245956 
	C370.252319,165.325485 371.126770,165.163773 372.365479,164.959869 
	C374.152954,164.613937 375.576172,164.310165 377.302277,164.292633 
	C383.079041,164.719864 388.552460,164.890488 394.027130,164.987976 
	C396.366302,165.029648 398.708160,164.918839 401.048798,164.877319 
	C401.485657,164.918335 401.922516,164.959320 402.757568,165.417984 
	C408.811188,168.209641 414.466614,170.583649 420.122009,172.957642 
	C420.122009,172.957642 420.583466,173.002838 420.936127,173.269531 
	C421.522278,173.750870 421.795135,173.886124 422.107330,173.941971 
	C422.107330,173.941971 422.027405,173.975113 422.062469,174.288879 
	C425.198273,178.104965 427.681976,182.534805 433.391357,182.115784 
	C433.391357,182.115784 433.741394,182.247391 433.637787,182.747894 
	C434.153748,183.537598 434.773285,183.826797 435.392853,184.116013 
	C435.392853,184.116013 435.747131,184.250427 435.617188,184.745514 
	C436.013763,186.367783 436.467346,187.536331 437.078613,188.615524 
	C441.363007,196.179230 446.205536,203.480743 449.850098,211.338913 
	C454.163818,220.639847 454.362183,230.810806 454.070496,240.959991 
	C453.948578,245.201950 460.824677,251.043900 465.390564,251.119476 
	C465.390564,251.119476 465.732025,251.248245 465.588287,251.766907 
	C464.805145,256.028625 467.032623,256.903259 470.099487,256.938019 
	C470.099487,256.938019 470.018585,256.981384 470.028259,257.320404 
	C473.393494,262.752716 476.749023,267.845978 480.104553,272.939270 
	C480.104553,272.939270 480.025238,272.969879 480.113464,273.150543 
	C480.340179,273.621460 480.552307,273.840393 480.838074,273.988037 
	C480.838074,273.988037 480.996979,274.418793 481.006958,275.081360 
	C481.019348,276.740692 480.766418,277.821655 481.063080,278.721344 
	C484.530121,289.236084 485.513153,299.952301 484.068024,310.930573 
	C483.939423,311.907562 484.745361,313.007568 485.117279,314.050446 
	C485.077484,315.112610 485.037689,316.174744 484.729431,317.765442 
	C484.246216,318.532104 484.105896,318.808075 484.040009,319.121918 
z"/>
<path fill="#FA9405" opacity="1.000000" stroke="none" 
	d="
M125.154938,390.732178 
	C130.094345,381.919250 134.801849,372.964813 140.059601,364.346069 
	C143.248672,359.118408 147.288910,354.410004 151.412292,349.141296 
	C153.956909,346.393799 156.035980,343.973328 158.498383,341.638794 
	C160.718735,342.340057 162.623795,342.805878 164.377441,343.604248 
	C167.306137,344.937653 170.138031,346.483643 173.361008,348.033325 
	C176.256638,348.856354 178.801956,349.586151 181.661530,350.495483 
	C185.552109,352.726990 189.093842,354.843323 192.724289,356.794617 
	C193.925293,357.440155 195.354874,357.660431 196.679932,358.075134 
	C197.026672,356.686737 197.688095,355.290283 197.652756,353.911682 
	C197.585114,351.274445 197.121063,348.647339 196.893829,345.611023 
	C197.356171,343.096710 197.441910,340.868225 198.210098,338.907013 
	C199.269470,336.202454 200.843994,333.699677 202.197845,331.110443 
	C208.538025,322.033020 214.651276,312.783997 221.324814,303.958679 
	C224.184860,300.176483 227.955872,296.938446 231.769974,294.058380 
	C236.723099,290.318268 238.100143,285.098755 239.534256,279.087524 
	C242.179123,277.457214 244.338165,275.958923 246.731598,275.193695 
	C254.030563,272.860046 261.419861,270.808868 269.182007,268.724487 
	C270.108734,268.643921 270.627502,268.486603 271.519592,268.399048 
	C278.901550,270.384033 280.415833,276.895721 283.107269,282.242981 
	C288.828735,293.610352 292.421021,306.112732 301.941803,315.394958 
	C304.650543,318.035797 303.338104,321.279907 299.849823,322.684174 
	C297.391937,323.673584 295.024353,324.887360 292.208191,325.980957 
	C284.941010,325.953705 278.718262,327.659027 273.766418,332.729858 
	C273.807800,332.785156 273.681030,332.730255 273.362183,332.869995 
	C272.738586,335.819122 272.197601,338.628998 272.203278,341.437775 
	C272.207886,343.714539 273.242706,346.000458 273.179016,348.264282 
	C272.778625,362.491608 272.198669,376.713837 271.678101,390.937775 
	C271.346039,390.947937 271.014008,390.958893 269.952057,390.911713 
	C235.820541,390.852295 202.418961,390.863464 169.017365,390.845947 
	C154.396545,390.838257 139.775742,390.771881 125.154938,390.732178 
z"/>
<path fill="#413F56" opacity="1.000000" stroke="none" 
	d="
M380.588318,358.987640 
	C380.600128,361.243744 380.611938,363.499847 380.318054,365.603943 
	C379.906525,364.562317 379.800659,363.672699 379.682587,362.680389 
	C373.796570,365.251495 375.328491,369.969635 374.608704,374.579773 
	C373.608154,380.987946 375.233246,386.013428 378.081909,391.155762 
	C378.034637,391.137573 378.061218,391.039825 378.061218,391.039825 
	C377.875214,391.032135 377.689240,391.024445 376.827240,391.004944 
	C375.097870,390.937805 374.044495,390.882477 372.945465,390.552856 
	C372.585602,389.992798 372.271393,389.707031 371.957153,389.421234 
	C371.641052,389.889832 371.324921,390.358429 370.544678,390.900116 
	C358.385956,390.982880 346.691345,390.992554 334.996735,391.002228 
	C332.258331,391.012665 329.519958,391.023071 326.012085,390.946228 
	C324.796051,389.241699 324.349457,387.624420 323.971863,385.703613 
	C323.782440,384.627838 323.524078,383.855621 323.292908,382.729431 
	C323.183441,381.925079 323.046753,381.474701 322.942352,380.598816 
	C322.354279,375.092072 321.741119,370.009979 321.112244,364.929840 
	C319.675201,353.321503 318.291901,341.705902 316.745300,330.112183 
	C316.363647,327.251404 315.904968,324.235687 314.660828,321.692810 
	C312.645050,317.572693 312.299408,313.847839 315.435516,310.030487 
	C318.045166,308.959900 320.206604,307.335114 322.563385,306.969330 
	C339.217651,304.384705 354.646881,295.855164 372.010010,296.788361 
	C375.065552,302.784454 378.037994,308.824738 381.196899,314.765869 
	C385.493439,322.846649 386.669128,331.336914 384.948517,340.274109 
	C384.168274,344.326935 383.357239,348.373810 381.941498,352.760529 
	C377.384857,356.320526 377.280304,357.158966 380.588318,358.987640 
z"/>
<path fill="#433F56" opacity="1.000000" stroke="none" 
	d="
M297.857819,137.028503 
	C295.626312,132.331009 294.878479,128.049362 296.268585,122.386215 
	C298.674591,112.584610 304.365723,109.563385 313.401428,109.192551 
	C316.082764,109.082504 318.641144,106.936203 321.331512,105.924095 
	C334.128845,101.109856 345.725983,104.201912 355.162140,113.142166 
	C358.551178,116.353111 359.549225,122.526062 360.707550,127.561348 
	C363.077942,137.865692 361.994324,148.094803 358.402588,158.038055 
	C358.242523,158.481171 357.801514,158.822800 356.984192,159.528366 
	C356.285309,159.897980 356.093628,159.950928 355.684448,159.942902 
	C355.466888,159.881927 355.051819,160.066055 354.785461,160.046448 
	C354.343689,160.057175 354.168274,160.087540 353.588379,160.020752 
	C343.599823,161.588303 343.651276,161.576324 341.354828,151.708893 
	C340.873230,149.639557 340.193878,147.468948 339.026947,145.734329 
	C335.666321,140.738861 331.136414,140.807922 327.393799,145.500641 
	C326.632629,146.455002 324.685516,147.741928 324.191437,147.431778 
	C319.598999,144.548767 315.161285,141.407928 310.819183,138.154434 
	C310.374329,137.821091 310.883728,136.264420 310.882660,135.275497 
	C310.881439,134.121353 311.046265,132.883667 310.683411,131.840744 
	C310.413116,131.063873 309.470886,130.134674 308.728333,130.037964 
	C308.194031,129.968384 307.418518,131.099960 306.885468,131.798645 
	C305.535980,133.567490 304.262512,135.394318 302.634552,137.166336 
	C301.883545,137.206528 301.456573,137.278290 300.644257,137.239410 
	C299.458557,137.095337 298.658173,137.061920 297.857819,137.028503 
z"/>
<path fill="#FAF0E1" opacity="1.000000" stroke="none" 
	d="
M315.077698,310.059021 
	C312.299408,313.847839 312.645050,317.572693 314.660828,321.692810 
	C315.904968,324.235687 316.363647,327.251404 316.745300,330.112183 
	C318.291901,341.705902 319.675201,353.321503 321.112244,364.929840 
	C321.741119,370.009979 322.354279,375.092072 322.729156,380.777161 
	C322.744324,381.948486 323.005005,382.515930 323.265686,383.083405 
	C323.524078,383.855621 323.782440,384.627838 323.585205,385.719055 
	C320.461853,389.250641 317.223389,390.810272 312.913483,390.054718 
	C310.993134,389.718079 308.933380,389.794769 306.996765,390.084198 
	C305.933838,390.243042 304.995361,391.234406 304.000763,391.850372 
	C303.553925,391.902496 303.107056,391.954620 302.318359,391.556580 
	C299.624908,388.173767 300.270111,385.192017 301.408661,381.934601 
	C302.142029,379.836426 303.501495,376.957397 299.675903,375.496155 
	C300.186249,373.014526 300.722015,370.932465 301.225250,368.842590 
	C303.428772,359.691559 305.722717,350.560516 307.772461,341.375061 
	C308.620880,337.573059 308.889496,333.465363 304.608521,331.390839 
	C300.925720,329.606171 296.937653,328.451508 292.989319,326.753937 
	C292.801514,326.326752 292.708984,326.163879 292.616455,326.000977 
	C295.024353,324.887360 297.391937,323.673584 299.849823,322.684174 
	C303.338104,321.279907 304.650543,318.035797 301.941803,315.394958 
	C292.421021,306.112732 288.828735,293.610352 283.107269,282.242981 
	C280.415833,276.895721 278.901550,270.384033 271.401245,268.097717 
	C270.243683,264.809784 269.577850,261.892944 269.106018,258.725555 
	C270.495483,257.297943 271.690948,256.120880 273.231628,255.000275 
	C274.905548,256.465942 276.324463,257.801575 277.546143,259.298157 
	C281.252197,263.838196 284.874207,268.446716 288.544678,273.015900 
	C290.364105,275.280792 292.214478,275.599792 294.303558,273.264038 
	C294.229553,274.847809 294.060944,276.245880 293.532196,277.491089 
	C291.600830,282.039856 293.306671,287.084167 297.229462,286.802917 
	C302.053040,286.457062 304.907257,288.469299 307.583862,291.952271 
	C308.616608,293.296173 310.493866,293.991089 311.986786,295.317566 
	C311.993103,296.100647 311.999023,296.547852 312.002899,297.442810 
	C312.270538,302.137848 310.928833,306.792603 315.077698,310.059021 
z"/>
<path fill="#413E56" opacity="1.000000" stroke="none" 
	d="
M293.084564,327.018250 
	C296.937653,328.451508 300.925720,329.606171 304.608521,331.390839 
	C308.889496,333.465363 308.620880,337.573059 307.772461,341.375061 
	C305.722717,350.560516 303.428772,359.691559 301.225250,368.842590 
	C300.722015,370.932465 300.186249,373.014526 299.494141,375.770477 
	C299.250336,377.307800 299.177887,378.174805 298.868774,379.204407 
	C298.531067,379.913208 298.430023,380.459473 298.210388,381.324646 
	C297.978333,382.081665 297.864929,382.519775 297.474060,383.008270 
	C297.181152,383.719818 297.165680,384.380951 297.149872,385.372925 
	C297.018036,386.120697 296.886566,386.537659 296.435730,387.028564 
	C295.723907,388.291016 295.331451,389.479492 294.625641,390.773621 
	C293.873291,390.920166 293.434296,390.961090 292.995300,391.001984 
	C292.812744,390.998383 292.630188,390.994781 291.999084,390.709167 
	C290.722046,390.584137 289.893494,390.741089 289.064972,390.898041 
	C284.664795,390.935059 280.264587,390.972076 275.298218,390.745575 
	C274.536377,390.248413 274.292358,390.088531 273.990662,389.533691 
	C274.235870,381.446594 274.428101,373.825470 274.764435,366.210693 
	C275.041718,359.933289 275.876709,353.654785 275.738037,347.392883 
	C275.629547,342.492554 274.408020,337.616882 273.681030,332.730255 
	C273.681030,332.730255 273.807800,332.785156 274.158752,332.834778 
	C280.701355,330.928986 286.892944,328.973633 293.084564,327.018250 
z"/>
<path fill="#FEF9F0" opacity="1.000000" stroke="none" 
	d="
M465.221466,250.861847 
	C460.824677,251.043900 453.948578,245.201950 454.070496,240.959991 
	C454.362183,230.810806 454.163818,220.639847 449.850098,211.338913 
	C446.205536,203.480743 441.363007,196.179230 437.078613,188.615524 
	C436.467346,187.536331 436.013763,186.367783 435.684875,184.922470 
	C445.536346,194.877655 451.920044,206.930115 454.916260,220.664001 
	C455.810944,224.765060 456.231903,229.141647 455.867645,233.304276 
	C455.340515,239.328629 457.190460,243.860413 461.927490,247.442062 
	C463.097290,248.326569 464.017456,249.541306 465.221466,250.861847 
z"/>
<path fill="#FFFCD7" opacity="1.000000" stroke="none" 
	d="
M125.105804,391.008484 
	C139.775742,390.771881 154.396545,390.838257 169.017365,390.845947 
	C202.418961,390.863464 235.820541,390.852295 269.704193,390.886292 
	C268.531708,391.278412 266.877563,391.948334 265.222595,391.950256 
	C218.791794,392.003693 172.360886,391.989655 125.466614,391.915100 
	C125.021042,391.657318 125.038864,391.471069 125.105804,391.008484 
z"/>
<path fill="#FEFAF3" opacity="1.000000" stroke="none" 
	d="
M270.833374,143.507889 
	C268.841858,144.252792 266.633392,144.933151 264.420013,144.949341 
	C250.685913,145.049850 236.950577,144.967422 223.215973,145.023636 
	C219.294724,145.039688 215.374542,145.314346 211.197235,145.175735 
	C214.200714,144.253952 217.443222,143.212921 220.724030,143.073624 
	C232.942215,142.554855 245.171524,142.202911 257.399750,142.067215 
	C261.800049,142.018372 266.209106,142.757050 270.833374,143.507889 
z"/>
<path fill="#674933" opacity="1.000000" stroke="none" 
	d="
M273.362183,332.869995 
	C274.408020,337.616882 275.629547,342.492554 275.738037,347.392883 
	C275.876709,353.654785 275.041718,359.933289 274.764435,366.210693 
	C274.428101,373.825470 274.235870,381.446594 273.984131,389.742859 
	C273.986969,390.420776 273.983978,390.839355 273.983978,390.839355 
	C273.473816,390.911713 272.963654,390.984039 272.065796,390.997070 
	C272.198669,376.713837 272.778625,362.491608 273.179016,348.264282 
	C273.242706,346.000458 272.207886,343.714539 272.203278,341.437775 
	C272.197601,338.628998 272.738586,335.819122 273.362183,332.869995 
z"/>
<path fill="#FEFAF3" opacity="1.000000" stroke="none" 
	d="
M107.613045,203.034363 
	C107.580124,209.629150 102.076508,214.361176 95.677589,215.156372 
	C87.391586,216.186096 79.244308,218.329193 71.035072,219.981857 
	C69.272453,220.336685 67.500305,220.644165 65.313507,220.954224 
	C70.850693,218.622971 76.672119,215.806274 82.808121,214.167267 
	C87.279686,212.972870 92.311172,213.910690 96.813683,212.782791 
	C99.542618,212.099182 101.852913,209.417679 104.130486,207.386185 
	C105.414749,206.240662 106.251045,204.592896 107.613045,203.034363 
z"/>
<path fill="#FEFAF3" opacity="1.000000" stroke="none" 
	d="
M207.592468,145.085770 
	C203.462463,147.102097 199.018951,149.310562 194.370453,150.930984 
	C185.749130,153.936264 177.015839,156.622620 168.309753,159.380432 
	C166.719009,159.884323 165.035873,160.096542 163.167633,160.163010 
	C174.048584,153.242920 186.432907,150.150162 198.795685,147.004715 
	C201.581253,146.295990 204.388947,145.674332 207.592468,145.085770 
z"/>
<path fill="#FEFAF3" opacity="1.000000" stroke="none" 
	d="
M301.029602,137.350067 
	C301.456573,137.278290 301.883545,137.206528 302.634155,137.600906 
	C302.968231,142.376892 302.978638,146.686722 302.989044,150.996552 
	C299.359924,150.335663 295.706482,149.785019 292.107117,148.989410 
	C285.906982,147.618896 279.740601,146.095871 273.290222,144.394379 
	C282.232697,145.211273 291.445007,146.270660 300.995209,147.368896 
	C300.995209,144.813339 300.995209,141.864182 301.039581,138.302429 
	C301.083954,137.689835 301.029602,137.350067 301.029602,137.350067 
z"/>
<path fill="#FEFAF3" opacity="1.000000" stroke="none" 
	d="
M383.462463,391.916565 
	C383.663910,391.246124 384.331543,390.122559 384.995117,390.124969 
	C397.153595,390.168915 409.311646,390.347748 421.762085,390.804779 
	C420.717987,391.408752 419.382996,391.956329 418.044952,391.963837 
	C406.672516,392.027405 395.299561,391.992737 383.462463,391.916565 
z"/>
<path fill="#FEFAF3" opacity="1.000000" stroke="none" 
	d="
M485.486450,313.836914 
	C484.745361,313.007568 483.939423,311.907562 484.068024,310.930573 
	C485.513153,299.952301 484.530121,289.236084 481.063080,278.721344 
	C480.766418,277.821655 481.019348,276.740692 481.029755,275.309814 
	C485.601532,285.011810 488.073456,295.453064 486.055603,306.654449 
	C485.648224,308.916046 485.905060,311.297272 485.486450,313.836914 
z"/>
<path fill="#FEFAF3" opacity="1.000000" stroke="none" 
	d="
M355.901978,160.003876 
	C356.093628,159.950928 356.285309,159.897980 356.773438,159.812714 
	C363.405609,160.523346 369.741333,161.266281 376.538544,162.392914 
	C376.999817,163.186554 376.999634,163.596466 376.999451,164.006409 
	C375.576172,164.310165 374.152954,164.613937 372.176544,164.717163 
	C370.748505,164.679306 369.873657,164.841995 368.998779,165.004700 
	C367.240479,165.668945 365.482147,166.333191 363.056519,166.839066 
	C360.765503,164.494186 360.055359,160.702652 355.891510,162.609146 
	C355.895966,161.492599 355.898956,160.748245 355.901978,160.003876 
z"/>
<path fill="#FEF9F0" opacity="1.000000" stroke="none" 
	d="
M377.302307,164.292633 
	C376.999634,163.596466 376.999817,163.186554 376.999420,162.469254 
	C384.892426,162.833984 392.785980,163.506088 400.864197,164.527771 
	C398.708160,164.918839 396.366302,165.029648 394.027130,164.987976 
	C388.552460,164.890488 383.079041,164.719864 377.302307,164.292633 
z"/>
<path fill="#FEF9F0" opacity="1.000000" stroke="none" 
	d="
M299.105469,379.041840 
	C299.177887,378.174805 299.250336,377.307800 299.504517,376.166443 
	C303.501495,376.957397 302.142029,379.836426 301.408661,381.934601 
	C300.270111,385.192017 299.624908,388.173767 301.987915,391.477692 
	C299.100067,391.833008 296.200867,391.817047 293.148468,391.401550 
	C293.434296,390.961090 293.873291,390.920166 294.963470,390.759491 
	C295.994812,389.411346 296.374939,388.182953 296.755096,386.954590 
	C296.886566,386.537659 297.018036,386.120697 297.381348,385.191956 
	C297.659332,384.106079 297.705444,383.531952 297.751556,382.957855 
	C297.864929,382.519775 297.978333,382.081665 298.471680,381.284210 
	C298.936249,380.297180 299.020844,379.669495 299.105469,379.041840 
z"/>
<path fill="#FEF9F0" opacity="1.000000" stroke="none" 
	d="
M304.464722,391.921753 
	C304.995361,391.234406 305.933838,390.243042 306.996765,390.084198 
	C308.933380,389.794769 310.993134,389.718079 312.913483,390.054718 
	C317.223389,390.810272 320.461853,389.250641 323.516235,386.022583 
	C324.349457,387.624420 324.796051,389.241699 325.612946,390.931152 
	C322.403290,391.337799 318.829376,391.798676 315.241638,391.970276 
	C311.811462,392.134369 308.366913,391.997620 304.464722,391.921753 
z"/>
<path fill="#FEFAF3" opacity="1.000000" stroke="none" 
	d="
M36.605106,246.036789 
	C34.903416,251.161850 32.953957,256.463074 30.809013,261.683960 
	C29.661501,264.477051 28.177095,267.131683 26.501114,269.924438 
	C29.530336,262.059875 32.903172,254.119705 36.605106,246.036789 
z"/>
<path fill="#FEFAF3" opacity="1.000000" stroke="none" 
	d="
M64.569527,220.943329 
	C64.213799,224.792175 57.766666,229.208694 51.270077,229.968658 
	C55.314575,226.969223 59.758511,223.981812 64.569527,220.943329 
z"/>
<path fill="#FEFAF3" opacity="1.000000" stroke="none" 
	d="
M335.162384,391.412170 
	C346.691345,390.992554 358.385956,390.982880 370.872772,390.967712 
	C372.107025,390.917206 372.549072,390.872192 372.991119,390.827148 
	C374.044495,390.882477 375.097870,390.937805 376.548004,391.004730 
	C376.313782,391.346375 375.682678,391.964294 375.051880,391.964050 
	C361.810577,391.958740 348.569305,391.883545 335.162384,391.412170 
z"/>
<path fill="#FEF9F0" opacity="1.000000" stroke="none" 
	d="
M480.054260,272.569977 
	C476.749023,267.845978 473.393494,262.752716 470.049805,257.279846 
	C473.375732,262.000427 476.689850,267.100555 480.054260,272.569977 
z"/>
<path fill="#FEFAF3" opacity="1.000000" stroke="none" 
	d="
M137.597244,173.928314 
	C133.510223,177.568848 129.065018,181.270935 124.245209,184.964859 
	C128.326752,181.301086 132.782898,177.645493 137.597244,173.928314 
z"/>
<path fill="#FEF9F0" opacity="1.000000" stroke="none" 
	d="
M419.978546,172.626572 
	C414.466614,170.583649 408.811188,168.209641 403.077942,165.496231 
	C408.611725,167.536377 414.223419,169.915939 419.978546,172.626572 
z"/>
<path fill="#FEFAF3" opacity="1.000000" stroke="none" 
	d="
M426.410645,390.914215 
	C426.499512,390.258179 426.902588,389.309509 427.511810,389.150513 
	C433.086792,387.695343 438.697601,386.377441 444.710022,385.031250 
	C439.021515,387.024628 432.920990,389.006226 426.410645,390.914215 
z"/>
<path fill="#FEF9F0" opacity="1.000000" stroke="none" 
	d="
M433.217102,181.851135 
	C427.681976,182.534805 425.198273,178.104965 422.079224,174.248993 
	C425.721527,176.459045 429.382202,179.022766 433.217102,181.851135 
z"/>
<path fill="#FEFAF3" opacity="1.000000" stroke="none" 
	d="
M160.642654,160.172607 
	C159.107300,165.532135 154.220123,165.951645 149.295731,166.953964 
	C152.691727,164.688416 156.487259,162.440811 160.642654,160.172607 
z"/>
<path fill="#FEFAF3" opacity="1.000000" stroke="none" 
	d="
M122.609146,185.930542 
	C121.632736,189.380615 120.560143,193.149124 115.262009,192.968506 
	C117.333694,190.634125 119.797661,188.312485 122.609146,185.930542 
z"/>
<path fill="#FEFAF3" opacity="1.000000" stroke="none" 
	d="
M25.086685,289.434326 
	C25.600542,291.836945 26.041109,294.674164 26.184916,297.783813 
	C25.596567,295.327118 25.304979,292.598053 25.086685,289.434326 
z"/>
<path fill="#FEFAF3" opacity="1.000000" stroke="none" 
	d="
M112.636490,196.009583 
	C111.509949,198.216751 110.062981,200.558212 108.255264,202.919586 
	C109.368378,200.674286 110.842224,198.409103 112.636490,196.009583 
z"/>
<path fill="#FEF9F0" opacity="1.000000" stroke="none" 
	d="
M469.977173,256.629761 
	C467.032623,256.903259 464.805145,256.028625 465.657654,251.935684 
	C467.198792,253.164368 468.526794,254.742950 469.977173,256.629761 
z"/>
<path fill="#FEFAF3" opacity="1.000000" stroke="none" 
	d="
M45.652607,234.993927 
	C46.021065,238.113251 44.695786,240.197830 40.927574,240.313293 
	C42.186642,238.447937 43.767754,236.783127 45.652607,234.993927 
z"/>
<path fill="#FEFAF3" opacity="1.000000" stroke="none" 
	d="
M481.385956,327.953156 
	C481.724030,325.456787 482.407684,322.795013 483.463104,320.067749 
	C483.133759,322.597412 482.432678,325.192596 481.385956,327.953156 
z"/>
<path fill="#FEFAF3" opacity="1.000000" stroke="none" 
	d="
M29.943560,313.434265 
	C30.923847,315.139587 31.952887,317.219238 32.969971,319.709229 
	C31.969452,318.015930 30.980881,315.912231 29.943560,313.434265 
z"/>
<path fill="#FEFAF3" opacity="1.000000" stroke="none" 
	d="
M25.524746,273.140442 
	C25.874439,274.903442 25.868675,276.858612 25.511482,278.906311 
	C25.163132,277.110107 25.166210,275.221313 25.524746,273.140442 
z"/>
<path fill="#FEFAF3" opacity="1.000000" stroke="none" 
	d="
M26.085102,301.375793 
	C26.906134,302.877960 27.653671,304.756073 28.144402,306.843262 
	C27.262266,305.285431 26.636936,303.518585 26.085102,301.375793 
z"/>
<path fill="#FEFAF3" opacity="1.000000" stroke="none" 
	d="
M143.607330,169.924683 
	C144.312912,173.320465 141.927200,173.041153 139.284805,172.968994 
	C140.330566,171.966003 141.795105,170.976669 143.607330,169.924683 
z"/>
<path fill="#FEFAF3" opacity="1.000000" stroke="none" 
	d="
M28.088610,309.347778 
	C28.764452,310.121552 29.367586,311.240082 29.953999,312.730438 
	C29.296818,311.965668 28.656359,310.829102 28.088610,309.347778 
z"/>
<path fill="#FEFAF3" opacity="1.000000" stroke="none" 
	d="
M148.591858,166.944107 
	C147.840469,167.588455 146.742065,168.283798 145.254608,168.967361 
	C145.991989,168.302094 147.118423,167.648590 148.591858,166.944107 
z"/>
<path fill="#FEFAF3" opacity="1.000000" stroke="none" 
	d="
M38.628696,243.018204 
	C38.491940,243.883133 38.048611,244.870972 37.247780,245.898193 
	C37.367561,245.005432 37.844845,244.073273 38.628696,243.018204 
z"/>
<path fill="#FEFAF3" opacity="1.000000" stroke="none" 
	d="
M39.871330,240.768250 
	C39.940350,241.354950 39.771305,242.096481 39.246986,242.888321 
	C39.138901,242.266785 39.386086,241.594940 39.871330,240.768250 
z"/>
<path fill="#FEF9F0" opacity="1.000000" stroke="none" 
	d="
M435.278107,183.929901 
	C434.773285,183.826797 434.153748,183.537598 433.706665,182.921722 
	C434.307220,182.977982 434.735291,183.360886 435.278107,183.929901 
z"/>
<path fill="#FEFAF3" opacity="1.000000" stroke="none" 
	d="
M380.252319,390.004639 
	C380.492279,390.446564 380.732239,390.888489 380.989441,391.589325 
	C380.078278,391.809662 379.149872,391.771088 378.141357,391.386169 
	C378.061218,391.039825 378.034637,391.137573 378.395447,391.075348 
	C379.254913,390.676941 379.753632,390.340790 380.252319,390.004639 
z"/>
<path fill="#F5BDBE" opacity="1.000000" stroke="none" 
	d="
M300.644257,137.239410 
	C301.029602,137.350067 301.083954,137.689835 301.013184,137.846008 
	C300.011688,137.893997 299.080994,137.785812 298.004028,137.353073 
	C298.658173,137.061920 299.458557,137.095337 300.644257,137.239410 
z"/>
<path fill="#5E5A67" opacity="1.000000" stroke="none" 
	d="
M289.420471,390.933167 
	C289.893494,390.741089 290.722046,390.584137 291.732025,390.648407 
	C291.200989,390.902527 290.488464,390.935394 289.420471,390.933167 
z"/>
<path fill="#FEF9F0" opacity="1.000000" stroke="none" 
	d="
M480.885590,273.722717 
	C480.552307,273.840393 480.340179,273.621460 480.128754,273.110870 
	C480.348236,273.079468 480.640686,273.268433 480.885590,273.722717 
z"/>
<path fill="#5E5A67" opacity="1.000000" stroke="none" 
	d="
M274.220520,390.874756 
	C273.983978,390.839355 273.986969,390.420776 273.993469,390.211609 
	C274.292358,390.088531 274.536377,390.248413 274.833069,390.678345 
	C274.934052,390.874603 274.457031,390.910126 274.220520,390.874756 
z"/>
<path fill="#FEFAF3" opacity="1.000000" stroke="none" 
	d="
M113.701775,193.961914 
	C113.892593,194.186752 113.753265,194.463745 113.349243,194.840973 
	C113.255066,194.669800 113.350761,194.360764 113.701775,193.961914 
z"/>
<path fill="#FEFAF3" opacity="1.000000" stroke="none" 
	d="
M484.296570,319.034790 
	C484.105896,318.808075 484.246216,318.532104 484.650879,318.156738 
	C484.744904,318.328888 484.649048,318.638275 484.296570,319.034790 
z"/>
<path fill="#FEF9F0" opacity="1.000000" stroke="none" 
	d="
M422.023254,173.687653 
	C421.795135,173.886124 421.522278,173.750870 421.153931,173.348877 
	C421.325775,173.252136 421.632477,173.342728 422.023254,173.687653 
z"/>
<path fill="#E8E8EF" opacity="1.000000" stroke="none" 
	d="
M355.890045,162.981323 
	C360.055359,160.702652 360.765503,164.494186 362.692078,166.846619 
	C362.518097,168.383606 361.690826,169.745789 361.655792,171.128052 
	C361.614655,172.749130 361.701660,175.078949 362.710144,175.897339 
	C366.775604,179.196487 371.270020,181.960693 375.489166,185.080505 
	C376.763062,186.022491 378.175781,187.305664 378.641113,188.722763 
	C380.937439,195.715637 383.651794,202.683334 384.887848,209.888229 
	C387.232269,223.553452 386.276428,236.903595 380.384766,249.972076 
	C377.263062,256.896423 377.627838,265.459259 374.230255,272.175323 
	C370.147949,280.244934 372.555939,288.119080 371.954834,296.418945 
	C354.646881,295.855164 339.217651,304.384705 322.563385,306.969330 
	C320.206604,307.335114 318.045166,308.959900 315.435516,310.030487 
	C310.928833,306.792603 312.270538,302.137848 312.333618,297.591370 
	C317.432800,299.636688 322.802979,301.564880 326.908722,297.315430 
	C334.823395,289.123688 342.803528,280.814819 347.434937,270.081940 
	C349.312164,265.731567 351.148651,261.363617 353.350220,256.962280 
	C361.972198,250.101349 369.773346,235.078217 367.992462,227.861877 
	C367.126282,230.101456 366.664032,231.613342 365.976746,233.014877 
	C363.825165,237.402588 361.678741,241.797241 359.357697,246.096039 
	C357.360138,249.795822 355.125946,253.367844 352.653320,257.057343 
	C344.495605,267.580475 340.040283,280.086334 330.462280,289.697418 
	C324.509430,295.670837 319.484314,297.802094 311.986389,294.981689 
	C310.493866,293.991089 308.616608,293.296173 307.583862,291.952271 
	C304.907257,288.469299 302.053040,286.457062 297.229462,286.802917 
	C293.306671,287.084167 291.600830,282.039856 293.532196,277.491089 
	C294.060944,276.245880 294.229553,274.847809 294.287170,272.832733 
	C294.207520,266.085419 294.618896,260.125519 301.083862,256.990875 
	C304.775391,257.829346 308.466888,258.667816 312.889435,259.672333 
	C316.711548,245.972656 320.940369,232.366699 318.405365,217.103455 
	C320.338898,213.558655 322.008514,210.511688 324.104553,207.793549 
	C327.934296,202.827118 327.751709,197.534470 325.989868,191.980637 
	C326.992401,187.265076 327.994965,182.549515 329.382446,177.426666 
	C330.730591,176.859772 331.839996,176.955627 332.634369,176.500977 
	C340.416290,172.046890 348.145721,167.501083 355.890045,162.981323 
z"/>
<path fill="#F7BDBE" opacity="1.000000" stroke="none" 
	d="
M301.023682,256.647156 
	C294.618896,260.125519 294.207520,266.085419 294.027344,272.576904 
	C292.214478,275.599792 290.364105,275.280792 288.544678,273.015900 
	C284.874207,268.446716 281.252197,263.838196 277.546143,259.298157 
	C276.324463,257.801575 274.905548,256.465942 273.144501,254.680038 
	C269.148315,251.787018 265.584473,249.270691 261.743958,246.530212 
	C258.711426,245.106094 255.955521,243.906128 253.170746,242.449707 
	C252.862030,241.781815 252.582169,241.370407 252.205566,240.593933 
	C248.236877,234.146530 248.382568,227.306427 248.641006,220.290741 
	C249.985672,218.787582 251.075760,217.486755 252.481140,216.210983 
	C253.198334,216.152710 253.600235,216.069382 254.249847,216.015167 
	C254.497574,216.044296 254.987213,215.948883 255.355286,216.069443 
	C258.046112,216.851959 260.416870,217.382263 262.679993,218.207703 
	C265.825165,219.354813 268.889648,220.723251 271.988647,221.996933 
	C279.692688,233.821808 287.953217,245.165649 299.268066,253.913544 
	C300.007263,254.485046 300.406281,255.496567 301.023682,256.647156 
z"/>
<path fill="#FAC0BF" opacity="1.000000" stroke="none" 
	d="
M303.000702,209.999084 
	C298.101685,205.646591 293.344818,201.114578 288.216064,197.052078 
	C286.697571,195.849274 284.021973,195.290237 282.064331,195.604706 
	C274.794098,196.772614 267.641235,198.700333 260.358490,199.744095 
	C257.975311,200.085663 255.330978,198.604813 252.209671,197.691498 
	C250.703613,196.269150 249.793976,195.112686 248.884338,193.956223 
	C249.357162,191.188629 249.592957,188.353699 250.355850,185.668503 
	C251.644318,181.133545 256.058807,177.862885 260.678375,178.000946 
	C268.294434,178.228546 276.133850,177.651489 283.452271,179.304016 
	C290.876099,180.980347 297.792328,184.924515 304.906555,187.932922 
	C306.098907,188.437119 307.167755,189.233322 308.647430,190.403122 
	C307.991180,196.929245 306.981171,202.946838 305.655823,209.001343 
	C304.560577,209.358521 303.780640,209.678802 303.000702,209.999084 
z"/>
<path fill="#F5BDBE" opacity="1.000000" stroke="none" 
	d="
M355.891510,162.609161 
	C348.145721,167.501083 340.416290,172.046890 332.634369,176.500977 
	C331.839996,176.955627 330.730591,176.859772 329.384460,177.016663 
	C328.140045,172.905014 325.801971,170.710968 321.550964,169.572983 
	C312.252014,167.083664 306.795288,160.204575 303.046204,151.350296 
	C302.978638,146.686722 302.968231,142.376892 302.958191,137.632492 
	C304.262512,135.394318 305.535980,133.567490 306.885468,131.798645 
	C307.418518,131.099960 308.194031,129.968384 308.728333,130.037964 
	C309.470886,130.134674 310.413116,131.063873 310.683411,131.840744 
	C311.046265,132.883667 310.881439,134.121353 310.882660,135.275497 
	C310.883728,136.264420 310.374329,137.821091 310.819183,138.154434 
	C315.161285,141.407928 319.598999,144.548767 324.191437,147.431778 
	C324.685516,147.741928 326.632629,146.455002 327.393799,145.500641 
	C331.136414,140.807922 335.666321,140.738861 339.026947,145.734329 
	C340.193878,147.468948 340.873230,149.639557 341.354828,151.708893 
	C343.651276,161.576324 343.599823,161.588303 353.697754,160.170166 
	C354.491638,160.299835 354.771729,160.182938 355.051819,160.066040 
	C355.051819,160.066055 355.466888,159.881927 355.684448,159.942902 
	C355.898956,160.748245 355.895966,161.492599 355.891510,162.609161 
z"/>
<path fill="#464054" opacity="1.000000" stroke="none" 
	d="
M271.807220,221.686066 
	C268.889648,220.723251 265.825165,219.354813 262.679993,218.207703 
	C260.416870,217.382263 258.046112,216.851959 255.339203,215.829712 
	C254.791687,215.224854 254.628342,214.980270 254.464996,214.735672 
	C254.310715,215.152466 254.156418,215.569244 254.002136,215.986053 
	C253.600235,216.069382 253.198334,216.152710 252.342590,215.860962 
	C251.742279,213.522171 251.595795,211.558487 251.407898,209.039719 
	C248.857132,209.888275 246.490234,210.675659 243.206223,211.768143 
	C245.162415,215.062943 246.774414,217.778015 248.386414,220.493073 
	C248.382568,227.306427 248.236877,234.146530 251.890289,240.743256 
	C251.045258,242.476700 250.418777,243.695770 249.599838,245.033783 
	C249.200958,245.380539 249.055298,245.642212 248.618500,245.994659 
	C245.928146,245.456497 243.340271,245.295517 241.325363,244.137543 
	C239.510132,243.094330 238.173218,241.063919 236.909332,239.268936 
	C236.019440,238.005066 235.240509,236.454437 235.041855,234.948746 
	C234.201004,228.575668 233.607864,228.097702 227.651871,229.949463 
	C226.395096,230.340210 225.147049,230.758987 223.894974,231.164841 
	C218.541626,232.436600 217.042328,231.101059 218.096451,225.886978 
	C218.489975,223.940521 219.060318,222.026581 219.613495,220.116196 
	C222.383240,210.550888 224.265778,209.304855 234.322342,208.840485 
	C237.531769,208.692291 240.892517,207.833252 243.820145,206.500244 
	C248.277817,204.470581 252.309296,203.905731 256.348938,207.156662 
	C256.984863,207.668457 257.754852,208.270599 258.508148,208.340073 
	C266.503448,209.077530 269.295349,214.980911 271.807220,221.686066 
z"/>
<path fill="#E3E3ED" opacity="1.000000" stroke="none" 
	d="
M158.708405,312.391846 
	C160.433533,313.167877 162.158676,313.943878 163.927338,315.293823 
	C164.529388,316.825806 164.852921,318.219910 165.685837,318.668671 
	C170.017487,321.002594 174.478897,323.095673 179.134109,325.519196 
	C181.795319,327.026917 184.217529,328.288086 187.029984,329.752411 
	C183.908981,335.771057 181.114456,341.160126 178.213303,346.754791 
	C176.335892,346.184082 174.790817,345.714417 173.046906,345.008942 
	C167.088730,341.791321 161.266434,338.923584 155.590424,335.790833 
	C151.194794,333.364777 146.982086,330.607269 142.808472,327.658539 
	C143.797806,325.433197 144.666763,323.546387 145.822830,321.459351 
	C147.821213,318.107819 149.532455,314.956543 151.358475,311.593903 
	C153.503830,312.734772 155.191315,313.757019 157.003250,314.457184 
	C157.266327,314.558868 158.125214,313.118591 158.708405,312.391846 
z"/>
<path fill="#494256" opacity="1.000000" stroke="none" 
	d="
M240.010178,274.932343 
	C238.234009,276.351318 236.472504,277.789124 234.678909,279.185699 
	C229.523865,283.199707 223.800797,281.041504 222.998764,274.556885 
	C222.463272,270.227356 221.554871,265.633057 226.508011,262.652527 
	C228.998108,261.154114 228.405029,259.529510 226.237823,257.615295 
	C224.728653,256.282288 224.176620,253.865631 223.609955,251.582886 
	C225.678528,252.451294 227.733215,253.374405 228.902222,254.953293 
	C230.988113,257.770508 233.002716,257.584442 235.061066,255.410248 
	C236.272690,254.130386 236.794479,252.213043 237.954330,250.864334 
	C239.178207,249.441162 240.791931,248.353256 242.235352,247.118896 
	C242.798782,248.815140 243.928711,250.548904 243.819336,252.200592 
	C243.491562,257.150024 242.679413,262.067383 241.994843,267.317444 
	C241.911789,268.071075 241.890213,268.504517 241.617218,269.182892 
	C240.909348,271.044067 240.452881,272.660370 239.995331,274.440674 
	C239.994278,274.604675 240.010178,274.932343 240.010178,274.932343 
z"/>
<path fill="#B27075" opacity="1.000000" stroke="none" 
	d="
M242.056335,266.997253 
	C242.679413,262.067383 243.491562,257.150024 243.819336,252.200592 
	C243.928711,250.548904 242.798782,248.815140 242.235352,247.118896 
	C240.791931,248.353256 239.178207,249.441162 237.954330,250.864334 
	C236.794479,252.213043 236.272690,254.130386 235.061066,255.410248 
	C233.002716,257.584442 230.988113,257.770508 228.902222,254.953293 
	C227.733215,253.374405 225.678528,252.451294 223.680740,251.210815 
	C221.241318,244.705475 221.921097,238.302750 223.896500,231.551270 
	C225.147049,230.758987 226.395096,230.340210 227.651871,229.949463 
	C233.607864,228.097702 234.201004,228.575668 235.041855,234.948746 
	C235.240509,236.454437 236.019440,238.005066 236.909332,239.268936 
	C238.173218,241.063919 239.510132,243.094330 241.325363,244.137543 
	C243.340271,245.295517 245.928146,245.456497 248.566940,246.358948 
	C247.907806,249.527374 247.203293,252.508438 245.927231,255.220612 
	C244.143723,259.011383 247.225998,264.373047 242.056335,266.997253 
z"/>
<path fill="#D3D2D8" opacity="1.000000" stroke="none" 
	d="
M303.046265,210.350266 
	C303.780640,209.678802 304.560577,209.358521 306.025635,208.966995 
	C307.772675,207.162079 309.328003,205.551041 309.795593,203.669662 
	C310.826202,199.522781 311.308197,195.239578 312.014099,191.012009 
	C316.378571,191.344147 320.743073,191.676300 325.548706,191.994537 
	C327.751709,197.534470 327.934296,202.827118 324.104553,207.793549 
	C322.008514,210.511688 320.338898,213.558655 318.241028,216.718002 
	C312.338501,216.538666 306.596130,216.278641 303.046265,210.350266 
z"/>
<path fill="#BA7877" opacity="1.000000" stroke="none" 
	d="
M201.860825,330.954559 
	C200.843994,333.699677 199.269470,336.202454 198.210098,338.907013 
	C197.441910,340.868225 197.356171,343.096710 196.549561,345.563660 
	C193.025681,344.530273 189.918365,343.139191 186.821075,341.371765 
	C187.710663,338.892303 188.488037,336.739044 189.490021,334.696014 
	C191.917404,329.746490 191.604736,328.653839 186.670639,326.328552 
	C184.146408,325.138977 181.578873,324.041260 178.812378,322.638733 
	C176.023956,320.455017 173.454086,318.534546 170.884216,316.614075 
	C179.326294,316.668365 187.647263,316.467712 193.199066,324.980316 
	C194.914566,327.610687 198.690979,328.897003 201.860825,330.954559 
z"/>
<path fill="#BA7877" opacity="1.000000" stroke="none" 
	d="
M158.115051,341.552856 
	C156.035980,343.973328 153.956909,346.393799 151.563904,348.820953 
	C149.601990,347.522125 148.101273,345.943146 146.278763,344.961761 
	C140.486649,341.842804 138.151978,336.689667 137.790558,330.320251 
	C138.865250,330.206604 139.408096,330.343018 140.159882,330.708557 
	C146.284241,334.476044 152.199646,338.014465 158.115051,341.552856 
z"/>
<path fill="#604344" opacity="1.000000" stroke="none" 
	d="
M240.041656,275.270691 
	C240.010178,274.932343 239.994278,274.604675 240.333527,274.363831 
	C241.472519,273.774445 242.272247,273.425934 243.391830,273.025513 
	C244.832077,272.377869 245.952469,271.782135 247.455780,271.133423 
	C251.279648,269.744049 254.720581,268.407623 258.572205,267.071289 
	C260.711212,266.756714 262.511688,265.991821 264.147491,266.254089 
	C265.775726,266.515137 267.238617,267.807556 268.773987,268.647766 
	C261.419861,270.808868 254.030563,272.860046 246.731598,275.193695 
	C244.338165,275.958923 242.179123,277.457214 239.598907,278.672913 
	C239.547653,277.686676 239.810394,276.647858 240.041656,275.270691 
z"/>
<path fill="#5E5A67" opacity="1.000000" stroke="none" 
	d="
M158.723755,312.375610 
	C158.125214,313.118591 157.266327,314.558868 157.003250,314.457184 
	C155.191315,313.757019 153.503830,312.734772 151.358475,311.593903 
	C149.532455,314.956543 147.821213,318.107819 145.613007,321.149414 
	C144.415695,320.372833 143.715347,319.705994 143.014984,319.039154 
	C144.741165,315.314453 146.467361,311.589752 148.551239,307.093262 
	C151.353729,308.747192 153.832809,310.210236 156.941223,311.784363 
	C157.957901,312.035767 158.345245,312.176086 158.732605,312.316406 
	C158.732605,312.316406 158.739120,312.359344 158.723755,312.375610 
z"/>
<path fill="#F0E4DC" opacity="1.000000" stroke="none" 
	d="
M248.548981,194.040802 
	C249.793976,195.112686 250.703613,196.269150 251.818146,197.678802 
	C248.357239,200.264618 244.691452,202.597214 240.420303,205.315018 
	C239.360001,204.887085 237.445236,204.114304 235.138947,203.183517 
	C239.631332,200.071198 243.922470,197.098282 248.548981,194.040802 
z"/>
<path fill="#6D555C" opacity="1.000000" stroke="none" 
	d="
M170.497559,316.522766 
	C173.454086,318.534546 176.023956,320.455017 178.795654,323.034973 
	C178.963348,324.220520 178.929230,324.746582 178.895111,325.272614 
	C174.478897,323.095673 170.017487,321.002594 165.685837,318.668671 
	C164.852921,318.219910 164.529388,316.825806 164.021210,315.588684 
	C166.084656,315.683533 168.097794,316.057495 170.497559,316.522766 
z"/>
<path fill="#E7C8CB" opacity="1.000000" stroke="none" 
	d="
M311.721222,190.878738 
	C311.308197,195.239578 310.826202,199.522781 309.795593,203.669662 
	C309.328003,205.551041 307.772675,207.162079 306.340973,208.930099 
	C306.981171,202.946838 307.991180,196.929245 309.004272,190.456833 
	C309.814331,190.249832 310.621368,190.497650 311.721222,190.878738 
z"/>
<path fill="#494256" opacity="1.000000" stroke="none" 
	d="
M142.742737,319.253998 
	C143.715347,319.705994 144.415695,320.372833 145.325867,321.349670 
	C144.666763,323.546387 143.797806,325.433197 142.485306,327.700500 
	C141.344818,328.880493 140.647888,329.679962 139.950958,330.479431 
	C139.408096,330.343018 138.865250,330.206604 137.906097,330.010284 
	C139.150024,326.456543 140.810272,322.962677 142.742737,319.253998 
z"/>
<path fill="#E3E3ED" opacity="1.000000" stroke="none" 
	d="
M158.786087,312.013824 
	C158.345245,312.176086 157.957901,312.035767 157.270782,311.803864 
	C157.297516,311.282837 157.624039,310.853363 157.950562,310.423920 
	C158.246902,310.853027 158.543228,311.282135 158.786087,312.013824 
z"/>
<path fill="#3D3A4D" opacity="1.000000" stroke="none" 
	d="
M380.202911,389.537140 
	C379.753632,390.340790 379.254913,390.676941 378.442719,391.093536 
	C375.233246,386.013428 373.608154,380.987946 374.608704,374.579773 
	C375.328491,369.969635 373.796570,365.251495 379.682587,362.680389 
	C379.800659,363.672699 379.906525,364.562317 380.039185,365.802307 
	C380.095184,373.791626 380.124329,381.430634 380.202911,389.537140 
z"/>
<path fill="#3D3A4D" opacity="1.000000" stroke="none" 
	d="
M380.560913,358.959045 
	C377.280304,357.158966 377.384857,356.320526 381.681763,353.054871 
	C382.008179,353.772095 381.975739,354.532166 381.444824,355.766632 
	C380.827881,357.119354 380.709473,357.997650 380.591064,358.875946 
	C380.591064,358.875946 380.533478,358.930420 380.560913,358.959045 
z"/>
<path fill="#FEF9F0" opacity="1.000000" stroke="none" 
	d="
M369.188324,165.245956 
	C369.873657,164.841995 370.748505,164.679306 371.812317,164.759323 
	C371.126770,165.163773 370.252319,165.325485 369.188324,165.245956 
z"/>
<path fill="#413F56" opacity="1.000000" stroke="none" 
	d="
M380.861145,358.691589 
	C380.709473,357.997650 380.827881,357.119354 381.289185,356.117920 
	C381.465118,356.832245 381.298157,357.669708 380.861145,358.691589 
z"/>
<path fill="#BB7072" opacity="1.000000" stroke="none" 
	d="
M269.182007,268.724487 
	C267.238617,267.807556 265.775726,266.515137 264.147491,266.254089 
	C262.511688,265.991821 260.711212,266.756714 258.130737,267.047180 
	C255.807327,267.002960 254.225235,267.328491 252.885468,266.898682 
	C248.782455,265.582397 247.715240,268.011841 247.072861,271.186371 
	C245.952469,271.782135 244.832077,272.377869 243.369202,272.644653 
	C242.640686,271.189789 242.254654,270.063873 241.868622,268.937988 
	C241.890213,268.504517 241.911789,268.071075 241.994843,267.317444 
	C247.225998,264.373047 244.143723,259.011383 245.927231,255.220612 
	C247.203293,252.508438 247.907806,249.527374 248.918884,246.302002 
	C249.055298,245.642212 249.200958,245.380539 249.964935,245.034058 
	C251.414856,244.179001 252.307236,243.442581 253.199615,242.706177 
	C255.955521,243.906128 258.711426,245.106094 261.758057,246.991776 
	C262.079132,249.336060 262.064545,250.996902 262.148468,252.652740 
	C262.364777,256.919922 264.058014,259.649597 268.912048,258.976105 
	C269.577850,261.892944 270.243683,264.809784 271.027863,268.027954 
	C270.627502,268.486603 270.108734,268.643921 269.182007,268.724487 
z"/>
<path fill="#FBEDD3" opacity="1.000000" stroke="none" 
	d="
M186.811035,341.748138 
	C189.918365,343.139191 193.025681,344.530273 196.477264,345.968689 
	C197.121063,348.647339 197.585114,351.274445 197.652756,353.911682 
	C197.688095,355.290283 197.026672,356.686737 196.679932,358.075134 
	C195.354874,357.660431 193.925293,357.440155 192.724289,356.794617 
	C189.093842,354.843323 185.552109,352.726990 181.800781,350.249084 
	C183.354172,347.131500 185.082596,344.439819 186.811035,341.748138 
z"/>
<path fill="#614D5D" opacity="1.000000" stroke="none" 
	d="
M186.821075,341.371765 
	C185.082596,344.439819 183.354172,347.131500 181.486511,350.069550 
	C178.801956,349.586151 176.256638,348.856354 173.374710,347.582764 
	C173.107315,346.440918 173.176529,345.842804 173.245758,345.244720 
	C174.790817,345.714417 176.335892,346.184082 178.213303,346.754791 
	C181.114456,341.160126 183.908981,335.771057 187.029984,329.752411 
	C184.217529,328.288086 181.795319,327.026917 179.134094,325.519196 
	C178.929230,324.746582 178.963348,324.220520 179.014191,323.298248 
	C181.578873,324.041260 184.146408,325.138977 186.670639,326.328552 
	C191.604736,328.653839 191.917404,329.746490 189.490021,334.696014 
	C188.488037,336.739044 187.710663,338.892303 186.821075,341.371765 
z"/>
<path fill="#6D555C" opacity="1.000000" stroke="none" 
	d="
M173.046906,345.008942 
	C173.176529,345.842804 173.107315,346.440918 173.024384,347.489563 
	C170.138031,346.483643 167.306137,344.937653 164.377441,343.604248 
	C162.623795,342.805878 160.718735,342.340057 158.498398,341.638794 
	C152.199646,338.014465 146.284241,334.476044 140.159882,330.708557 
	C140.647888,329.679962 141.344818,328.880493 142.364914,328.039062 
	C146.982086,330.607269 151.194794,333.364777 155.590424,335.790833 
	C161.266434,338.923584 167.088730,341.791321 173.046906,345.008942 
z"/>
<path fill="#674933" opacity="1.000000" stroke="none" 
	d="
M292.989319,326.753906 
	C286.892944,328.973633 280.701355,330.928986 274.117371,332.779480 
	C278.718262,327.659027 284.941010,325.953705 292.208191,325.980957 
	C292.708984,326.163879 292.801514,326.326752 292.989319,326.753906 
z"/>
<path fill="#3D3A4D" opacity="1.000000" stroke="none" 
	d="
M372.945465,390.552856 
	C372.549072,390.872192 372.107025,390.917206 371.336884,390.894653 
	C371.324921,390.358429 371.641052,389.889832 371.957153,389.421234 
	C372.271393,389.707031 372.585602,389.992798 372.945465,390.552856 
z"/>
<path fill="#FEF9F0" opacity="1.000000" stroke="none" 
	d="
M323.292908,382.729431 
	C323.005005,382.515930 322.744324,381.948486 322.696869,381.202667 
	C323.046753,381.474701 323.183441,381.925079 323.292908,382.729431 
z"/>
<path fill="#E8E8EF" opacity="1.000000" stroke="none" 
	d="
M354.785461,160.046432 
	C354.771729,160.182938 354.491638,160.299835 354.102203,160.267303 
	C354.168274,160.087540 354.343689,160.057175 354.785461,160.046432 
z"/>
<path fill="#DBDBE3" opacity="1.000000" stroke="none" 
	d="
M353.003662,257.003662 
	C351.148651,261.363617 349.312164,265.731567 347.434937,270.081940 
	C342.803528,280.814819 334.823395,289.123688 326.908722,297.315430 
	C322.802979,301.564880 317.432800,299.636688 312.335693,297.143616 
	C311.999023,296.547852 311.993103,296.100647 311.986786,295.317566 
	C319.484314,297.802094 324.509430,295.670837 330.462280,289.697418 
	C340.040283,280.086334 344.495605,267.580475 352.655121,257.059143 
	C353.000000,257.000000 353.003662,257.003662 353.003662,257.003662 
z"/>
<path fill="#494256" opacity="1.000000" stroke="none" 
	d="
M269.106018,258.725555 
	C264.058014,259.649597 262.364777,256.919922 262.148468,252.652740 
	C262.064545,250.996902 262.079132,249.336060 262.034729,247.215942 
	C265.584473,249.270691 269.148315,251.787018 272.799316,254.623596 
	C271.690948,256.120880 270.495483,257.297943 269.106018,258.725555 
z"/>
<path fill="#5E5A67" opacity="1.000000" stroke="none" 
	d="
M296.435730,387.028564 
	C296.374939,388.182953 295.994812,389.411346 295.276825,390.653839 
	C295.331451,389.479492 295.723907,388.291016 296.435730,387.028564 
z"/>
<path fill="#FAF0E1" opacity="1.000000" stroke="none" 
	d="
M298.868774,379.204407 
	C299.020844,379.669495 298.936249,380.297180 298.590332,380.965271 
	C298.430023,380.459473 298.531067,379.913208 298.868774,379.204407 
z"/>
<path fill="#5E5A67" opacity="1.000000" stroke="none" 
	d="
M297.474060,383.008270 
	C297.705444,383.531952 297.659332,384.106079 297.381714,384.861145 
	C297.165680,384.380951 297.181152,383.719818 297.474060,383.008270 
z"/>
<path fill="#DBDBE3" opacity="1.000000" stroke="none" 
	d="
M352.998169,256.998169 
	C355.125946,253.367844 357.360138,249.795822 359.357697,246.096039 
	C361.678741,241.797241 363.825165,237.402588 365.976746,233.014877 
	C366.664032,231.613342 367.126282,230.101456 367.992462,227.861877 
	C369.773346,235.078217 361.972198,250.101349 353.350220,256.962280 
	C353.003662,257.003662 353.000000,257.000000 352.998169,256.998169 
z"/>
<path fill="#14121A" opacity="1.000000" stroke="none" 
	d="
M248.641006,220.290741 
	C246.774414,217.778015 245.162415,215.062943 243.206223,211.768143 
	C246.490234,210.675659 248.857132,209.888275 251.407898,209.039719 
	C251.595795,211.558487 251.742279,213.522171 252.027298,215.835907 
	C251.075760,217.486755 249.985672,218.787582 248.641006,220.290741 
z"/>
<path fill="#B27075" opacity="1.000000" stroke="none" 
	d="
M253.170746,242.449692 
	C252.307236,243.442581 251.414856,244.179001 250.157379,244.915131 
	C250.418777,243.695770 251.045258,242.476700 251.987015,241.108337 
	C252.582169,241.370407 252.862030,241.781815 253.170746,242.449692 
z"/>
<path fill="#14121A" opacity="1.000000" stroke="none" 
	d="
M254.249847,216.015167 
	C254.156418,215.569244 254.310715,215.152466 254.464996,214.735672 
	C254.628342,214.980270 254.791687,215.224854 254.971130,215.709167 
	C254.987213,215.948883 254.497574,216.044296 254.249847,216.015167 
z"/>
<path fill="#B27075" opacity="1.000000" stroke="none" 
	d="
M241.617233,269.182892 
	C242.254654,270.063873 242.640686,271.189789 243.049347,272.696533 
	C242.272247,273.425934 241.472519,273.774445 240.334595,274.199829 
	C240.452881,272.660370 240.909348,271.044067 241.617233,269.182892 
z"/>
<path fill="#B27075" opacity="1.000000" stroke="none" 
	d="
M247.455780,271.133423 
	C247.715240,268.011841 248.782455,265.582397 252.885468,266.898682 
	C254.225235,267.328491 255.807327,267.002960 257.720062,267.047028 
	C254.720581,268.407623 251.279648,269.744049 247.455780,271.133423 
z"/>
</svg>